<mxfile host="app.diagrams.net" agent="Mozilla/5.0 (Windows NT 10.0; Win64; x64) AppleWebKit/537.36 (KHTML, like Gecko) Chrome/130.0.0.0 Safari/537.36 Edg/130.0.0.0" version="26.0.16">
  <diagram name="第 1 页" id="pqdLP5we26Cw2XgYYHhp">
    <mxGraphModel dx="983" dy="570" grid="1" gridSize="10" guides="1" tooltips="1" connect="1" arrows="1" fold="1" page="1" pageScale="1" pageWidth="827" pageHeight="1169" math="0" shadow="0">
      <root>
        <mxCell id="0" />
        <mxCell id="1" parent="0" />
        <mxCell id="suJ-lMnNEcjRT-W93V0n-32" style="edgeStyle=orthogonalEdgeStyle;rounded=0;orthogonalLoop=1;jettySize=auto;html=1;exitX=0.75;exitY=1;exitDx=0;exitDy=0;entryX=1;entryY=0.5;entryDx=0;entryDy=0;" edge="1" parent="1">
          <mxGeometry relative="1" as="geometry">
            <mxPoint x="440" y="630" as="sourcePoint" />
            <mxPoint x="540" y="750" as="targetPoint" />
            <Array as="points">
              <mxPoint x="440" y="650" />
              <mxPoint x="560" y="650" />
              <mxPoint x="560" y="750" />
            </Array>
          </mxGeometry>
        </mxCell>
        <mxCell id="suJ-lMnNEcjRT-W93V0n-3" value="STM32 FXX 处理器" style="rounded=0;whiteSpace=wrap;html=1;" vertex="1" parent="1">
          <mxGeometry x="320" y="520" width="160" height="120" as="geometry" />
        </mxCell>
        <mxCell id="suJ-lMnNEcjRT-W93V0n-4" value="陀螺仪运动传感器&lt;span style=&quot;background-color: transparent; color: light-dark(rgb(0, 0, 0), rgb(255, 255, 255));&quot;&gt;BMX160&lt;/span&gt;" style="rounded=0;whiteSpace=wrap;html=1;" vertex="1" parent="1">
          <mxGeometry x="600" y="520" width="160" height="40" as="geometry" />
        </mxCell>
        <mxCell id="suJ-lMnNEcjRT-W93V0n-5" value="驱动模块" style="rounded=0;whiteSpace=wrap;html=1;" vertex="1" parent="1">
          <mxGeometry x="40" y="580" width="160" height="60" as="geometry" />
        </mxCell>
        <mxCell id="suJ-lMnNEcjRT-W93V0n-6" value="水深压力传感器&lt;div&gt;MS5837-30BA&lt;/div&gt;" style="rounded=0;whiteSpace=wrap;html=1;" vertex="1" parent="1">
          <mxGeometry x="600" y="600" width="160" height="40" as="geometry" />
        </mxCell>
        <mxCell id="suJ-lMnNEcjRT-W93V0n-7" value="蓝牙模块&lt;div&gt;HC-42&lt;/div&gt;" style="rounded=0;whiteSpace=wrap;html=1;" vertex="1" parent="1">
          <mxGeometry x="40" y="520" width="160" height="40" as="geometry" />
        </mxCell>
        <mxCell id="suJ-lMnNEcjRT-W93V0n-8" value="下载端口" style="rounded=0;whiteSpace=wrap;html=1;" vertex="1" parent="1">
          <mxGeometry x="320" y="420" width="160" height="40" as="geometry" />
        </mxCell>
        <mxCell id="suJ-lMnNEcjRT-W93V0n-9" value="电源管理模块" style="rounded=0;whiteSpace=wrap;html=1;" vertex="1" parent="1">
          <mxGeometry x="200" y="730" width="120" height="60" as="geometry" />
        </mxCell>
        <mxCell id="suJ-lMnNEcjRT-W93V0n-36" style="edgeStyle=orthogonalEdgeStyle;rounded=0;orthogonalLoop=1;jettySize=auto;html=1;exitX=1;exitY=0.5;exitDx=0;exitDy=0;entryX=0;entryY=0.5;entryDx=0;entryDy=0;" edge="1" parent="1" source="suJ-lMnNEcjRT-W93V0n-15" target="suJ-lMnNEcjRT-W93V0n-4">
          <mxGeometry relative="1" as="geometry" />
        </mxCell>
        <mxCell id="suJ-lMnNEcjRT-W93V0n-15" value="稳压升压模块" style="rounded=0;whiteSpace=wrap;html=1;" vertex="1" parent="1">
          <mxGeometry x="420" y="740" width="120" height="40" as="geometry" />
        </mxCell>
        <mxCell id="suJ-lMnNEcjRT-W93V0n-16" value="开关" style="rounded=0;whiteSpace=wrap;html=1;" vertex="1" parent="1">
          <mxGeometry x="420" y="780" width="120" height="40" as="geometry" />
        </mxCell>
        <mxCell id="suJ-lMnNEcjRT-W93V0n-28" style="edgeStyle=orthogonalEdgeStyle;rounded=0;orthogonalLoop=1;jettySize=auto;html=1;exitX=0;exitY=0.25;exitDx=0;exitDy=0;entryX=0.5;entryY=1;entryDx=0;entryDy=0;" edge="1" parent="1">
          <mxGeometry relative="1" as="geometry">
            <mxPoint x="460.03" y="710" as="sourcePoint" />
            <mxPoint x="380" y="640" as="targetPoint" />
          </mxGeometry>
        </mxCell>
        <mxCell id="suJ-lMnNEcjRT-W93V0n-17" value="稳压降压模块" style="rounded=0;whiteSpace=wrap;html=1;" vertex="1" parent="1">
          <mxGeometry x="420" y="700" width="120" height="40" as="geometry" />
        </mxCell>
        <mxCell id="suJ-lMnNEcjRT-W93V0n-20" style="edgeStyle=orthogonalEdgeStyle;rounded=0;orthogonalLoop=1;jettySize=auto;html=1;exitX=1;exitY=0.5;exitDx=0;exitDy=0;entryX=0;entryY=0.5;entryDx=0;entryDy=0;" edge="1" parent="1" source="suJ-lMnNEcjRT-W93V0n-18" target="suJ-lMnNEcjRT-W93V0n-9">
          <mxGeometry relative="1" as="geometry" />
        </mxCell>
        <mxCell id="suJ-lMnNEcjRT-W93V0n-18" value="DC7.4V&lt;div&gt;锂电池&lt;/div&gt;" style="rounded=0;whiteSpace=wrap;html=1;" vertex="1" parent="1">
          <mxGeometry x="40" y="735" width="50" height="50" as="geometry" />
        </mxCell>
        <mxCell id="suJ-lMnNEcjRT-W93V0n-23" value="" style="endArrow=none;html=1;rounded=0;exitX=1;exitY=0.5;exitDx=0;exitDy=0;" edge="1" parent="1" source="suJ-lMnNEcjRT-W93V0n-9">
          <mxGeometry width="50" height="50" relative="1" as="geometry">
            <mxPoint x="340" y="780" as="sourcePoint" />
            <mxPoint x="380" y="760" as="targetPoint" />
          </mxGeometry>
        </mxCell>
        <mxCell id="suJ-lMnNEcjRT-W93V0n-24" value="" style="endArrow=classic;html=1;rounded=0;entryX=0;entryY=0.5;entryDx=0;entryDy=0;" edge="1" parent="1" target="suJ-lMnNEcjRT-W93V0n-17">
          <mxGeometry width="50" height="50" relative="1" as="geometry">
            <mxPoint x="380" y="760" as="sourcePoint" />
            <mxPoint x="413" y="685" as="targetPoint" />
            <Array as="points">
              <mxPoint x="380" y="720" />
            </Array>
          </mxGeometry>
        </mxCell>
        <mxCell id="suJ-lMnNEcjRT-W93V0n-25" value="" style="endArrow=classic;html=1;rounded=0;entryX=0;entryY=0.5;entryDx=0;entryDy=0;" edge="1" parent="1" target="suJ-lMnNEcjRT-W93V0n-16">
          <mxGeometry width="50" height="50" relative="1" as="geometry">
            <mxPoint x="380" y="760" as="sourcePoint" />
            <mxPoint x="400" y="760" as="targetPoint" />
            <Array as="points">
              <mxPoint x="380" y="800" />
            </Array>
          </mxGeometry>
        </mxCell>
        <mxCell id="suJ-lMnNEcjRT-W93V0n-37" value="" style="endArrow=classic;html=1;rounded=0;entryX=0;entryY=0.5;entryDx=0;entryDy=0;" edge="1" parent="1" target="suJ-lMnNEcjRT-W93V0n-6">
          <mxGeometry width="50" height="50" relative="1" as="geometry">
            <mxPoint x="570" y="620" as="sourcePoint" />
            <mxPoint x="620" y="670" as="targetPoint" />
          </mxGeometry>
        </mxCell>
      </root>
    </mxGraphModel>
  </diagram>
</mxfile>
